<svg xmlns="http://www.w3.org/2000/svg" viewBox="0 0 1200 1200" xmlns:v="https://vecta.io/nano"><path d="M0 0h1200v1200H0z" fill="#96642c"/><g fill="#8c5829"><path d="M201.2 61.3c2.3 38.9 1.4 78 6.4 116.7 4.9-46-17.6-280.8-6.4-116.7zm89.3 56.9c-.2-.7-.3-1.5-.5-2.2.2.6.3 1.3.5 2.2zM31 144.1C25.2 132.1 55.6 12.7 33 0c.9 45.5-7.5 95.5-2 144.1h0z"/><path d="M33.2 19c0-.6.1-1.2.1-1.8-1.5 1.1-.9 1.7-.1 1.8zm83.9-19c-21.4-4.4-.6 23.9-3.4 36.6-.4-9 1.8-22.7 3.4-36.6zM13.4 579.1l.6 10c.3-5.2 0-8.4-.6-10zm150.6-45h0zm130.6-414.5C294.9 82.9 313.9 28 304 0c-.4 96.8-25.7 94-21.4 0-1.4 38.6-1.4 77.5 7.2 115.1-1.6-7.5 2.5 4.4 4.8 4.5zm-75.4 335.7c3-151.9-9.2-303.5-11.7-455.3 1.3 370.4 13.2 821.9-4 1200 27.4-238.5 3.3-499.8 15.7-744.7zm39.9-173.9c-13.8-89.6-.9-204.6-9.8-281.4-3.9 74.4-5.2 148.9-3.6 223.5-19.6-70.5-2-150.7-1.4-223.5-26.8 401.7 5.5 777.3-11 1200h11c-.5-72.8-18.1-153 1.3-223.5-1.5 74.5-.3 149 3.6 223.5 11.1-302.7 15.7-603.5 9.9-918.6zm-7.7 360.2c6 100.1 7.6 244.2-10.5 328.6-2-92.3 13.4-197.3 9.3-298.4-5.4-45.1-5.4-98.5 0-143.5 4.2-101.1-11.3-206.1-9.3-298.4 23.4 114 11.7 289.1 10.5 411.7z"/><path d="M208.8 208.4c2.7 131.1-21.4 260.9-19.4 391.6-2 130.7 22.1 260.5 19.4 391.6 12.7-131.9-6.6-260.9-16.6-391.6 10-130.7 29.3-259.8 16.6-391.6zm-40.1 349.7c-1.6-18.1-2.3 9.3 0 0h0zm-2.8-537.8c.7 32.9 3.8 65.6 7.7 98.2-.8-28.7-4.7-91.6-7.7-98.2zm129.4 201.3c-7 118.1-3.8 236.6-8.8 354.8 12.6-114.8-5.8-251.7 18-356.1 12 4.2 8.7 56.5 22.8 23.4 29.4 117.5-8.4 238.3-14 356.2 5.6 117.9 43.4 238.8 14 356.2-14.1-33.1-10.8 19.3-22.8 23.4-23.8-104.4-5.5-241.2-18-356.1 8.8 31.9-10.2 455 27.3 355.3 12-27.2 9.9 32.4 18.3 39.3l.1-836.3c-8.4 6.9-6.4 66.5-18.4 39.3 1.6-26.6-27.9-29.9-18.5.6zM309.6 381c-6.7 30.3-12.5 60.8.6 93.4-.2-25.5 15.2-91.4-.6-93.4zM12.7 72.8C-11.2-263.5 3.8 1149.9 0 1200c44.2-160.9-11.7-394.1 13.4-579.1-2.4 6.4-9.7-10.5-4.4-19h0c.5-1.3.5-2.6 0-3.9h0c-5.3-8.5 2-25.4 4.4-19-15.1-168.9 8.5-336.8-.7-506.2zm577.9 367.3c1.8-110.4-8.4-128.1 0 0h0z"/><path d="M590.6 440.1c-1.4 6.3 1.7 58.3 1.6 23.6l-1.6-23.6zM54.9 525c-.4 17 4.8 28.9 2.7 1 3.2-19.5-5.3-25.6-2.7-1zm26.8 8.4c-.1 4.9 0 10 1.5 14.7 6-16.5-2.8-53.5-1.5-14.7zm-51.2-91v1.1c.4-.2.5-.6 0-1.1zM152.1 58.3c-23.2-35.1-18 130.3-31 147.2-26.2 92-21.8-180.2-45.3-190.2-24.3 131.8-34.4 271.9-11.1 404.5 17-36.6 18.1-81 27.6-121.2 31-36.8 35.5 247.2 45 279.3 32.2-138.6 16.2-353.5 14.8-519.6zM64.2 343.4h0c-12.8-89.9-5-181.7 10.2-270.7 31.6 59.5 18.8 209.6-10.2 270.7zm79.5 117.3c3.8 2.5-4.1 2.9 0 0h0zm6.7-178.6c4.6 167.2-35.3 133.8-22.9-6.6h0c6.1-43.3 9.7-87.1 17.3-130.2 12.6 44.1 5.6 91.4 5.6 136.8zM50.6 0c-35.9 386.3-12.3 798-8.2 1200C51.5 821.3 27.7 394.1 50.6 0z"/><path d="M53.1 201.2c-4.8-4.9.9 9.4 0 0h0zm515.4 230.2c0 .3 0 .3 0 0h0zm-146.2-33.1zm6.9-66.9c-1.5 22.4-3.6 44.7-6.8 66.9 20.2-16.6 10.4-43.6 6.8-66.9z"/><path d="M427.1 0c5.8 102.3 0 222.3 2.1 331.4 3.2-130.5 13-180.6-2.1-331.4zm26.2 10.8c1.6 14.6 2.1 30.7 9.1 43.7-.9-13.9 13.1-60.8-8.5-54.6.6 2.6-2.2 10.3-.6 10.9zm59.5 402.3c4.1-55.1 6.5-110.4 6.4-165.7l-6.4 165.7zM376 0h-2c3.8 12.2 6.1 19.8 2 0zm113.6 55.9c-4.9-13.9-3.3-35.6-2.4-55.9h-13.8c1.3 37.8 4.4 75.7-8.3 112-31.6 127.5-8.6 272.9-32.9 407.4-14.8 149 26.7 314.4 16.9 458.9-6.3 76.8 37.6 144.4 24.4 221.8h13.8c-1.2-105.1 25-208.8-11-310.1l13.3-834.1zm-25.5 594.7c-24.5 208.8-31.4-125.3-20.4-171.4 30.1-1.6 24.1 144.6 20.4 171.4zm-17.2-123.5c-5.2 47-5.2 98.9 0 145.9 23.7 3.6 23.7-149.5 0-145.9zm10 25.3c3.6 29 3.6 66.2 0 95.2-16.3 6.3-11-26.6-9.3-47.6-1.6-21-7-53.9 9.3-47.6zm-57.4-441.5c-.8-16.7-12.6-54.4-6.6-15.6.8 5.7 2.5 11.6 6.6 15.6zm153.6 224.3l15.3 95.9c-23-119.1-16.3-302-20.9-431.1-11.5 152.1 6.1 305.9-3.1 458.6l.6-4.4c-4.1 96.6-4.1 194.9 0 291.5l-.6-4.4c9.2 152.6-8.4 306.6 3.1 458.6 4.6-128.7-2.1-312.5 20.9-431.1l-15.3 95.9a8498.13 8498.13 0 0 1 0-529.5zM535.5 0c-18.2 400.8 1.4 786.4-6.7 1200 23.1-364.5 3.7-822.7 6.7-1200zm4.9 418.9c8.5-5.6-2.9-9 0 0h0zm-332.9 623.8c0-6.9.6-13.8.1-20.6-7.9 59.1-.9 119.4-13.8 178 21-36.3 7.5-109.1 13.7-157.4zM290 1084c.2-.7.3-1.5.5-2.2l-.5 2.2zm-259-28.1c-5.5 48.7 2.9 98.6 1.9 144.1 22.7-12.5-7.7-132.2-1.9-144.1z"/><path d="M33.3 1182.8c0-.6-.1-1.2-.1-1.8-.8.1-1.4.7.1 1.8zm80.4-19.4c2.8 12.7-17.9 41 3.4 36.6-1.6-13.9-3.8-27.6-3.4-36.6zM13.9 610.9l-.6 10c.7-1.6 1-4.8.6-10zm150.1 55h0zm130.6 414.5c-2.4.1-6.4 11.9-4.8 4.4-8.6 37.7-8.6 76.5-7.3 115.1-4.2-94.3 21.1-96.5 21.4 0 10-27.9-9-82.7-9.3-119.5zM168.7 641.9c-2.3-9.3-1.6 18.1 0 0h0zm-2.8 537.8c3-6.6 6.9-69.5 7.7-98.2-3.9 32.6-7 65.3-7.7 98.2zM309.6 819c15.8-1.9.4-67.9.6-93.4-13.2 32.5-7.4 63-.6 93.4zm281-59.1c-8.4 128.1 1.8 110.4 0 0h0z"/><path d="M590.2 741.3l.4 18.6c1.7-12.7 2.3-58.1-.4-18.6zM57.7 674c2.1-27.9-3.2-16-2.7 1-2.7 24.6 5.8 18.5 2.7-1zm25.5-22.1c-1.5 4.7-1.6 9.8-1.5 14.7-1.3 38.8 7.5 1.8 1.5-14.7zM30.5 756.4v1.1c.5-.4.4-.8 0-1.1zm106.8-134.2c-9.6 32.9-13.6 314.4-45 279.3-9.5-40.2-10.6-84.7-27.6-121.2-23.3 132.6-13.2 272.8 11.1 404.5 23.4-9.5 19.1-282.4 45.3-190.2 46.5 460.5 46.1-324.8 16.2-372.4zm-62.9 505.1c-15.2-89-23-180.8-10.2-270.7 28.9 61 41.8 211 10.2 270.7zm69.3-388c-4.1-2.9 3.8-2.5 0 0h0zm1 315.3c-7.6-43.1-11.2-86.8-17.3-130.2h0c-.8-11.4-9.4-142.1 16.8-124.1 4.6 83.8 16.1 171.7.5 254.3z"/><path d="M53.1 998.8c.9-9.4-4.8 4.9 0 0h0zm515.4-230.2c0-.3 0-.3 0 0h0zm-146.2 33.1h0z"/><path d="M422.3 801.7c3.2 22.2 5.3 44.5 6.8 66.9 3.7-23.3 13.5-50.3-6.8-66.9zm7.1 122.3c-.4 93.1 7 182.9-6.3 276 26.4-138.7 5.6-205.1 6.1-331.4-3.9 19.9-7.2 40.1.2 55.4zm23.9 265.2c-1.6.6 1.3 8.3.6 10.8 21.6 6.3 7.7-40.6 8.6-54.6-7.1 13-7.6 29.1-9.2 43.8zm65.9-236.6c.1-55.3-2.3-110.6-6.4-165.7l6.4 165.7zM374 1200h2c4.1-19.8 1.8-12.2-2 0zm25.5-110.9c-4.1 4-5.8 9.9-6.6 15.6-6.1 38.8 5.8 1 6.6-15.6zm140.9-308c-2.9 9 8.5 5.6 0 0h0zM198 827.5c-61.9-264.1 60.5-592-24.4-827.5 45.7 264.5-9.7 401.8-3.4 600-6.3 197.6 49.1 336.5 3.3 600h15c12.9-123.5 16.5-248.3 9.5-372.5z"/><path d="M522 744.1C499.9 500.4 553.2 232.7 515.9 0c3.7 46.3 6 92 4.4 138.3-4.8-45.9-3.9-92.3-6.6-138.3-6.7 73.4 9.7 167.1 5.4 247.4-1.3-289.6-1.2 995 0 705.2 4.3 80.3-12.1 174.1-5.4 247.4 2.7-46.1 1.8-92.4 6.6-138.3-4.5 374.6 17.1-218.4 1.7-317.6zm4.7-457.9c3.8 2.5-4.1 2.9 0 0h0zm0 627.6c-4.1-2.9 3.8-2.5 0 0h0zm-417.2-189c9.5-82.9 9.5-166.7 0-249.7-38.9 23.6-1.2 84.3-12.2 124.8 11 40.7-26.7 101.3 12.2 124.9zm54.5-58.9C156.4 446 188.4 213.3 160.6 0v1200c25.1-169.8 2.1-357.5 3.4-534.1zm124.9 353c.9-137.2-1-322.1-6.3-410.8h0c-.8-2.6-.8-13.5 0-16.1h0c4.1-139.3 18-433.5-10.4-592 12.5 395.5-7.4 817.4 6.7 1200-.8-60.5 3.5-121.1 10-181.1zm-9.6-499c-1.3 20.4 2.2 41.5-4.2 61.2 2.2-19.6 0-45.5 4.2-61.2zm-4.2 99c6.4 19.7 2.9 40.8 4.2 61.2-4.2-15.7-2-41.6-4.2-61.2zM86.2 600c-2.5-29.2-4.3-29.2-3.4 0-.9 29.2 1 29.2 3.4 0zm-56.6 452.9V147v905.9zm352.9-132c3.2-33.3-19.9-24.3-20.5-2a5849.02 5849.02 0 0 1 0-637.8c27.8 86.4 42.5-166.8 26-186.1-6.4-31.7-15.6-62.9-20.2-95h-4.7c4.3 36-6 22.2-4.5 0-30.4 3-46.3-13.5-45.1 28.7-6.5 47.6-23.6 121.1 5.3 165.7 9.2-21.3 1-53.5 11.4-72.5 49.5 90.5-7.5 346.1.5 474.5-17.9-40.2-17.9 47.4 0 7.2-8 127.7 48.9 384.6-.5 474.5-10.5-19-2.3-51.2-11.4-72.5-28.8 44.7-11.8 118.1-5.3 165.7l2.7 28.7c25-4 46.6 14 44.1-22.5 5.1-4.6 4.7 8.1 2.9 22.5 34.3-89.4 41.4-177.7 19.3-279.1zm-24-735.5c7.9 11.4 9.2 67.1 20.9 28 16.4-43.7-2.2-89.8-14.6-131.7-6.1-17 9.1-32.3 7.5-7 12.7 19.4 31.3 225.8-13 155-9.8 63.5-9.1 130.9-8.8 195.6-2-17.6-1-35.4-1.7-53.1h0c-.3-54.6 5.8-124.4 9.7-186.8zM333 602.5c-1.7-2.1-1.7-2.9 0-5a14 14 0 0 1 0 5zm12.2-2.5c1.9-34.8-5.6-70.1 5.1-104.3-2.4 69.5-2.4 139 0 208.5-10.7-34.1-3.2-69.4-5.1-104.2zm19.7 518.2c12.3-41.9 30.9-87.9 14.6-131.7-11.7-39.1-13 16.7-20.9 28-4-62.3-10-132.2-9.6-186.9h0c.7-17.7-.3-35.5 1.7-53.1-.3 64.6-1 132 8.8 195.6 44.3-70.7 25.8 135.3 13 155 1.5 25.4-13.7 10.1-7.6-6.9zm79.7-53.7c13-155.5-26.4-309.1-18.2-464.5-8.1-155.4 31.3-309 18.2-464.5 1.6-22.6 42.4-55.6 4.1-56.1-11.4-24.3 1.1-56.7-2.8-79.4-.9 18.8-14.1 16-12.3 0 8.4 136.2 19 284.2-6.7 422.7-27.5 258.9 40.6 516.4 5 777.3 3.9.1 1.7-10.4 2.8-11.8 7.3-4.6 10.3 2.2 11.2 11.8-15.1-144.7 48.1-27.6-1.3-135.5zM416.7 600c-2.7-27.4 1.2-55.5-8.5-81.3-3.9-18.9 10.9-74 2.1-73.2-7 51.8-5.7 105.5 2.3 154.5-8 48.9-9.3 102.7-2.3 154.5 8.8.9-6-54.3-2.1-73.2 9.7-25.8 5.8-53.9 8.5-81.3zm6.3 432.8C373.9 693.9 425.9 337.6 417.6 0h-10.5c10.3 94.9 2.2 158.5 4 287.3-58.3 287.3 3.4 652 6.4 912.7.8-56.8 10.5-110.1 5.5-167.2zM591.3 600C576 404.7 594 180.8 582.8 0c-5.6 200.3-7.8 399.9 4.2 600-4.7 194.8-24 419.5 3.3 600-11.2-200-6.5-399.9 1-600zm-84.5 0c-3.1-61.6 3.8-126.2 6-186.9a1691.79 1691.79 0 0 0 0 373.7c-2.2-60.6-9.1-125.2-6-186.8zm492 538.7c-2.3-38.9-1.4-78-6.4-116.7-4.9 46 17.6 280.8 6.4 116.7zm-89.3-56.9c.2.7.3 1.5.5 2.2-.2-.6-.3-1.3-.5-2.2zm259.5-25.9c5.8 12-24.6 131.4-2 144.1-.9-45.5 7.5-95.5 2-144.1h0z"/><path d="M1166.8 1181c0 .6-.1 1.2-.1 1.8 1.5-1.1.9-1.7.1-1.8zm-83.9 19c21.4 4.4.6-23.9 3.4-36.6.4 9-1.8 22.7-3.4 36.6zm103.7-579.1l-.6-10c-.3 5.2 0 8.4.6 10zm-150.6 45h0zm-130.6 414.5c-.3 36.7-19.3 91.6-9.4 119.6.4-96.8 25.7-94 21.4 0 1.4-38.6 1.4-77.5-7.2-115.1 1.6 7.5-2.5-4.4-4.8-4.5zM996 1188c-12.3-376.2-12.6-811.8.5-1188-22.6 367.8-21.6 866-.5 1188zm35.3-546.1c1.6 18.1 2.3-9.3 0 0h0zm2.8 537.8c-.7-32.9-3.8-65.6-7.7-98.2.8 28.7 4.7 91.6 7.7 98.2zM890.4 819c6.7-30.3 12.5-60.8-.6-93.4.2 25.5-15.2 91.4.6 93.4zm-281-59.1c-1.8 110.4 8.4 128.1 0 0h0zm-1.6-23.7l1.6 23.6c1.4-6.2-1.7-58.3-1.6-23.6zm537.3-61.2c.4-17-4.8-28.9-2.7-1-3.2 19.5 5.3 25.6 2.7 1zm-26.8-8.4c.1-4.9 0-10-1.5-14.7-6 16.5 2.8 53.5 1.5 14.7zm51.2 91v-1.1c-.4.2-.5.6 0 1.1zm-34.2 22.6c-17 36.6-18.1 81-27.6 121.2-31.3 35.4-35.4-246.2-45-279.3-32.1 138.6-16.2 353.3-14.8 519.5 19.6 25.7 12.7-31.5 17.2-46.2 1.7-34.2 6.8-67.8 13.8-101 26.2-92 21.8 180.2 45.3 190.2 24.3-131.7 34.4-271.8 11.1-404.4zm-79-40.9c-3.8-2.5 4.1-2.9 0 0h0zm16.3 185.2h0c-6.1 43.3-9.7 87.1-17.3 130.2-15.6-82.7-4.1-170.6.5-254.3 26.1-18.1 17.5 112.7 16.8 124.1zm53 202.8c-31.6-59.4-18.8-209.7 10.2-270.7 12.8 89.9 4.9 181.7-10.2 270.7zm36.6-17c3.5-373.8 8.6-735.2-4.7-1110.3v1200c1.5-41.5-2.1-77.3 4.7-89.7z"/><path d="M1146.9 998.8c4.8 4.9-.9-9.4 0 0h0zM631.5 768.6c0-.3 0-.3 0 0h0zm146.2 33.1zm-10.6 15c-3.6 17.5 0 33.2 3.7 51.9-.8-16.3 14.6-90.1-3.7-51.9zm4.1 328.7c-7.3-93.5 5-183.9-.4-276.7.5 126.4-20.2 192.5 6.1 331.4-2.9-19.1-6.7-39.7-5.7-54.7zm-24.5 43.8c-1.6-14.6-2.1-30.7-9.1-43.7.9 13.9-13.1 60.8 8.5 54.6-.6-2.6 2.2-10.3.6-10.9zm-59.5-402.3c-4.1 55.1-6.5 110.4-6.4 165.7l6.4-165.7zM824 1200h2c-3.8-12.2-6.1-19.8-2 0zm-73-221.8c-9.8-144.5 31.7-309.8 16.9-458.9-24.3-134.7-1.3-279.8-32.9-407.4-12.7-36.2-9.7-74.2-8.4-111.9h-13.8c-5.8 297.1 10.7 591.1 11 889.9-36 101.3-9.9 204.9-11 310.1h13.8c-13.2-77.4 30.6-144.9 24.4-221.8zm-15.1-428.8c24.5-208.8 31.4 125.3 20.4 171.4-30.1 1.6-24.1-144.6-20.4-171.4zm17.2 123.5c5.2-47 5.2-98.9 0-145.9-23.7-3.6-23.7 149.5 0 145.9zm-10-25.3c-3.6-29-3.6-66.2 0-95.2 16.3-6.3 11 26.6 9.3 47.6 1.6 21 7 53.9-9.3 47.6zm57.4 441.5c.8 16.7 12.6 54.4 6.6 15.6-.8-5.7-2.5-11.6-6.6-15.6zM674.6 600L664.5 0c3.1 377.2-16.3 835.6 6.6 1200-11.9-208 4.9-406.2 3.5-600z"/><path d="M659.6 781.1c-8.5 5.6 2.9 9 0 0h0zm362.2 30c37.2-295.9-45.6-469.3 4.6-811.1h-15c-30.3 200.5 3.7 399.5 5.6 600 11.1 189.6-62.2 439.6 9.4 600-23.7-113.7-22.2-375.1-4.6-388.9zm-332.1-168c-.6-155.2-20.7-588.2-8.9-395.6-4.3-80.3 12.1-174.1 5.4-247.4-2.7 46.1-1.8 92.4-6.6 138.3-1.6-46.4.7-92.1 4.5-138.4-30.7 184.9.7 404.1-1.9 600 2.6 195.8-28.8 415.3 1.9 600-3.7-46.3-6-92-4.4-138.3 4.8 45.9 3.9 92.3 6.6 138.3 6.7-73.4-9.7-167.1-5.4-247.4-6.9 146.8-3.3-69.3 8.8-309.5zm-16.4-356.9c4.1 2.9-3.8 2.5 0 0h0zm0 627.6c-3.8-2.5 4.1-2.9 0 0h0zM1041.4 600c-5.4-197.9-8.4-408.7-5.5-600-18.2 200.6 4.1 399.4-1.1 600 5.1 200.6-17.1 399.4 1.1 600-2.9-191.4.1-402 5.5-600zm-144.3 508.4c1.2-70.8-14.1-161.3-27.3-30.3-49.5-90.5 7.5-346.1-.5-474.5 17.9 40.2 17.9-47.4 0-7.2 8-127.7-48.9-384.6.5-474.5 10.5 19 2.3 51.2 11.4 72.5C910 149.7 893 76.3 886.5 28.7c1.2-41.9-14.6-25.9-45.1-28.7 1.5 22.4-8.8 35.8-4.5 0h-4.7c-4.6 32.1-13.7 63.3-20.2 95-16.5 19.5-1.8 272.1 26.1 186.1a5849.02 5849.02 0 0 1 0 637.8c-27.8-86.4-42.6 166.9-26.1 186.1 6.4 31.7 15.6 62.9 20.2 95h4.7c-4.3-36 6-22.2 4.5 0 30.4-3 46.3 13.5 45.1-28.7 2.4-17.1 5.2-43.2 10.6-62.9zM867 597.5c1.7 2.1 1.7 2.9 0 5a14 14 0 0 1 0-5zm-26.4-367.7c-44.3 70.6-25.8-135.3-13-155-1.6-25.3 13.6-10 7.5 7-12.3 41.9-30.9 87.9-14.6 131.7 11.7 39.1 13-16.7 20.9-28 4 62.3 10 132.2 9.6 186.9h0c-.7 17.7.3 35.5-1.7 53.1.4-64.7 1.2-132.1-8.7-195.7zm9.1 265.9c9.3 68.1 9.3 140.4 0 208.5 2.4-69.4 2.4-139 0-208.5zm-8.2 518.9c-7.9-11.4-9.2-67.1-20.9-28-16.4 43.7 2.2 89.8 14.6 131.7 6.1 17-9.1 32.3-7.5 7-12.7-19.4-31.3-225.8 13-155 9.8-63.5 9.1-130.9 8.8-195.6 2 17.6 1 35.4 1.7 53.1h0c.3 54.6-5.8 124.4-9.7 186.8zm-68.4-237.3c27.5-258.9-40.6-516.4-5-777.3-3.9-.1-1.7 10.4-2.8 11.8-7.4 4.7-10.3-2.1-11.2-11.8-3.9 22.9 8.6 55-2.8 79.4-38.2.5 2.5 33.5 4.1 56.1-13 155.5 26.4 309.1 18.2 464.5 8.1 155.4-31.3 309-18.2 464.5-1.6 22.6-42.4 55.6-4.1 56.1 11.4 24.3-1.1 56.7 2.8 79.4.9-18.8 14.1-16 12.3 0-8.4-136.2-19.1-284.2 6.7-422.7zm15.8 135.4c58.3-287.3-3.4-652-6.4-912.7-28.5 198.7 35.6 396.5 14.4 600 21.2 203.5-42.9 401.3-14.4 600H793c-10.3-94.9-2.2-158.5-4.1-287.3zm203.6-755.4c0 6.9-.6 13.8-.1 20.6 7.9-59.1.9-119.4 13.8-178-21 36.3-7.5 109.1-13.7 157.4zM910 116c-.2.7-.3 1.5-.5 2.2l.5-2.2zm259 28.1c5.5-48.7-2.9-98.6-1.9-144.1-22.7 12.5 7.7 132.2 1.9 144.1z"/><path d="M1166.7 17.2c0 .6.1 1.2.1 1.8.8-.1 1.4-.7-.1-1.8zm-80.4 19.4c-2.8-12.7 17.9-41-3.4-36.6 1.6 13.9 3.8 27.6 3.4 36.6zm99.8 552.5l.6-10c-.7 1.6-1 4.8-.6 10zm-150.1-55h0zM905.4 119.6c2.4-.1 6.4-11.9 4.8-4.4 8.6-37.7 8.6-76.5 7.3-115.1 4.2 94.3-21.1 96.5-21.4 0-10 27.9 9 82.7 9.3 119.5zM966.7 1.4c-29.7-1.9 14.7 179.7-12.3 222 1.5-74.5.3-149-3.6-223.5-4.3 175.3-16.5 422.9-10.4 600-6.1 177 6.1 424.8 10.4 600 3.9-74.4 5.2-148.9 3.6-223.5 19.4 70.5 1.9 150.7 1.3 223.5 26.9-401.1-5.5-776.3 11-1198.5zm-17.2 519.7l.3 7.1c5.4 45.1 5.4 98.5 0 143.5-4.2 101.1 11.3 206.1 9.3 298.4-18.8-98.3-18.1-260.6-8.5-370.1-9.6-109.4-10.3-272 8.5-370.1 1.9 90.2-12.8 192-9.6 291.2zm41.7-312.7c-12.7 131.9 6.6 260.9 16.6 391.6-10 130.7-29.3 259.8-16.6 391.6-2.7-131.1 21.4-260.9 19.4-391.6 2-130.7-22.1-260.5-19.4-391.6zm40.1 349.7c2.3 9.3 1.6-18.1 0 0h0zm2.8-537.8c-3 6.6-6.9 69.5-7.7 98.2 3.9-32.6 7-65.3 7.7-98.2zM913.5 576.4c-8.8-32.2 10.3-454.9-27.3-355.3-12 27.2-9.9-32.4-18.3-39.3-19.2 139.7-3.2 280 18.1 418.1-21.3 138.1-37.2 278.5-18.1 418.1 8.4-6.9 6.3-66.5 18.3-39.3 37.3 102.7 18.7-325.4 27.3-355.3-12.6 114.8 5.8 251.7-18 356.1-12-4.2-8.7-56.5-22.8-23.4-29.4-117.5 8.4-238.3 14-356.2-5.6-117.9-43.4-238.8-14-356.2 14.1 33.1 10.8-19.3 22.8-23.4 23.7 104.5 5.4 241.2 18 356.1zM890.4 381c-15.8 1.9-.4 67.9-.6 93.4 13.2-32.5 7.4-63 .6-93.4z"/><path d="M1187.2 0c-7.6 193.8 12.5 385.9-.5 579.1 2.4-6.4 9.7 10.5 4.4 19h0c-.5 1.3-.5 2.6 0 3.9h0c5.3 8.5-2 25.4-4.4 19 13 193.2-7 385.4.6 579.1 24.4-261 24.4-939.3-.1-1200.1zM609.4 440.1c8.4-128.1-1.8-110.4 0 0h0z"/><path d="M609.8 458.7l-.4-18.6c-1.7 12.7-2.3 58.1.4 18.6zm532.5 67.3c-2.1 27.9 3.2 16 2.7-1 2.7-24.6-5.8-18.5-2.7 1zm-25.5 22.1c1.5-4.7 1.6-9.8 1.5-14.7 1.3-38.8-7.5-1.8-1.5 14.7zm52.7-104.5v-1.1c-.5.4-.4.8 0 1.1zm-106.8 134.2c9.6-32.9 13.6-314.4 45-279.3 9.5 40.2 10.6 84.7 27.6 121.2 23.3-132.6 13.2-272.8-11.1-404.5-23.4 9.5-19.1 282.4-45.3 190.2-46.5-460.5-46.1 324.8-16.2 372.4zm62.9-505.1c15.2 89 23 180.8 10.2 270.7-28.9-61-41.8-211-10.2-270.7zm-69.3 388c4.1 2.9-3.8 2.5 0 0h0zm-1-315.3c7.6 43.1 11.2 86.8 17.3 130.2h0c.8 11.4 9.4 142.1-16.8 124.1-4.6-83.8-16.1-171.7-.5-254.3z"/><path d="M1146.9 201.2c-.9 9.4 4.8-4.9 0 0h0zM631.5 431.4c0 .3 0 .3 0 0h0zm146.2-33.1h0z"/><path d="M777.7 398.3c-3.2-22.2-5.3-44.5-6.8-66.9-3.7 23.3-13.5 50.3 6.8 66.9zM770.6 276c.4-93.1-7-182.9 6.3-276-26.4 138.7-5.6 205.1-6.1 331.4 3.9-19.9 7.2-40.1-.2-55.4zM746.7 10.8c1.6-.6-1.3-8.3-.6-10.8-21.6-6.3-7.7 40.6-8.6 54.6 7.1-13 7.6-29.1 9.2-43.8zm-65.9 236.6c-.1 55.3 2.3 110.6 6.4 165.7l-6.4-165.7zM826 0h-2c-4.1 19.8-1.8 12.2 2 0zm-25.5 110.9c4.1-4 5.8-9.9 6.6-15.6 6.1-38.8-5.8-1-6.6 15.6zM661.4 591.8c-7-50.3-5.3-89-6.4-137.6l.6 4.4C646.4 306 664 152 652.5 0c-4.6 128.7 2.1 312.5-20.9 431.1l15.3-95.9a8504.55 8504.55 0 0 1 0 529.7L631.6 769c23 119.1 16.3 301.9 20.9 431.1 11.5-152.1-6.1-305.9 3.1-458.6l-.6 4.4c-.7-53.2 3-99.4 6.4-154.1zm-1.8-172.9c2.9-9-8.5-5.6 0 0h0zm430.9 56.3c-9.5 82.9-9.5 166.7 0 249.7 38.9-23.6 1.2-84.3 12.2-124.8-11-40.7 26.7-101.3-12.2-124.9zM927.8 0c-28.4 158.2-14.6 452.9-10.4 591.9h0c.8 2.6.8 13.5 0 16.1h0c-10.6 144-5.6 415.4 3.7 591.9 14.1-382.6-5.8-804.2 6.7-1199.9zm-7.1 680.1c1.3-20.4-2.2-41.5 4.2-61.2-2.2 19.6 0 45.5-4.2 61.2zm4.2-99c-6.4-19.7-2.9-40.8-4.2-61.2 4.2 15.7 2 41.6 4.2 61.2zm188.9 18.9c2.5 29.2 4.3 29.2 3.4 0 .9-29.2-1-29.2-3.4 0zm56.6-452.9V1053 147.1zM783.3 600c2.7 27.4-1.2 55.5 8.5 81.3 3.9 18.9-10.9 74-2.1 73.2 7-51.8 5.7-105.5-2.3-154.5 8-48.9 9.3-102.7 2.3-154.5-8.8-.9 6 54.3 2.1 73.2-9.7 25.8-5.8 53.9-8.5 81.3zM618.7 83.2c-2.8-27.5-.9-55.5-1.5-83.2-6.6 375.4-6.6 824.6 0 1200l1.5-1116.8z"/><path d="M696.8 517.4l-9.6-104.3c8.6 122.9 8.6 250.9 0 373.7 10.1-89.1 11.6-179.7 9.6-269.4z"/></g></svg>